<?xml version="1.0" encoding="UTF-8" standalone="no"?>
<!DOCTYPE svg PUBLIC "-//W3C//DTD SVG 1.1//EN" "http://www.w3.org/Graphics/SVG/1.1/DTD/svg11.dtd">
<svg width="100%" height="100%" viewBox="0 0 375 375" version="1.1" xmlns="http://www.w3.org/2000/svg" xmlns:xlink="http://www.w3.org/1999/xlink" xml:space="preserve" xmlns:serif="http://www.serif.com/" style="fill-rule:evenodd;clip-rule:evenodd;stroke-linejoin:round;stroke-miterlimit:2;">
    <g id="surface2799">
        <path d="M189.844,22.5C144.082,22.5 93.691,39.844 83.203,96.094C81.707,102.098 86.25,104.941 90,105.703L136.406,110.156C140.918,110.156 144.051,105.762 145.547,101.25C149.297,81.738 165.762,71.953 183.75,71.953C193.504,71.953 204.699,75.848 210.703,84.844C217.441,94.598 216.094,108.047 216.094,119.297L216.094,126.094C188.348,129.082 152.344,131.25 126.094,142.5C96.094,155.246 75,181.551 75,220.547C75,270.059 106.496,294.844 146.25,294.844C180,294.844 198.75,286.465 225,259.453C233.996,272.199 236.895,278.293 252.656,291.797C256.406,294.051 260.918,293.145 263.906,290.156L263.906,291.094C273.66,282.832 290.949,267.012 300.703,258.75C304.453,256.496 303.691,251.25 300.703,247.5C291.707,235.488 282.656,225.703 282.656,203.203L282.656,128.906C282.656,97.41 285.059,68.145 261.797,46.406C243.047,28.418 213.105,22.5 189.844,22.5ZM202.5,165L215.156,165L215.156,175.547C215.156,193.535 215.949,209.207 206.953,225.703C199.453,239.207 187.41,247.5 173.906,247.5C155.918,247.5 144.844,234.051 144.844,213.047C144.844,177.801 172.5,167.254 202.5,165ZM334.453,274.453C322.441,274.453 308.145,277.5 297.656,285C294.668,287.254 294.844,290.156 298.594,290.156C310.605,288.66 337.41,285.059 342.656,291.797C347.168,297.801 337.559,323.145 333.047,335.156C331.551,338.906 334.512,339.754 337.5,337.5C357.746,320.246 363.047,285.059 359.297,280.547C357.043,276.797 346.465,274.453 334.453,274.453ZM16.406,281.25C14.152,281.25 12.715,285.09 15.703,287.344C60.703,327.832 120.059,352.5 186.797,352.5C234.051,352.5 288.691,337.59 326.953,309.844C332.957,305.332 327.801,297.715 321.797,300.703C279.051,318.691 233.262,327.656 191.25,327.656C128.996,327.656 68.906,310.402 20.156,282.656C18.66,281.16 17.168,281.25 16.406,281.25Z" style="fill:rgb(255,103,106);fill-rule:nonzero;"/>
    </g>
</svg>
