<?xml version="1.0" encoding="UTF-8" standalone="no"?>
<!DOCTYPE svg PUBLIC "-//W3C//DTD SVG 1.1//EN" "http://www.w3.org/Graphics/SVG/1.1/DTD/svg11.dtd">
<svg width="100%" height="100%" viewBox="0 0 288 224" version="1.1" xmlns="http://www.w3.org/2000/svg" xmlns:xlink="http://www.w3.org/1999/xlink" xml:space="preserve" xmlns:serif="http://www.serif.com/" style="fill-rule:evenodd;clip-rule:evenodd;stroke-linejoin:round;stroke-miterlimit:2;">
    <g id="Artboard1" transform="matrix(0.77628,0,0,0.838951,-3.10512,0)">
        <rect x="4" y="0" width="371" height="267" style="fill:none;"/>
        <g transform="matrix(1.28819,0,0,1.19196,-55.2569,-19.0714)">
            <path d="M60,22.5C55.871,22.5 52.5,25.871 52.5,30L52.5,225C52.5,229.16 55.871,232.5 60,232.5L97.5,232.5C101.66,232.5 105,229.16 105,225L105,30C105,25.871 101.66,22.5 97.5,22.5L60,22.5ZM127.5,22.5C123.371,22.5 120,25.871 120,30L120,225C120,229.16 123.371,232.5 127.5,232.5L165,232.5C169.16,232.5 172.5,229.16 172.5,225L172.5,30C172.5,25.871 169.16,22.5 165,22.5L127.5,22.5ZM71.25,52.5L86.25,52.5C90.41,52.5 93.75,55.871 93.75,60C93.75,64.129 90.41,67.5 86.25,67.5L71.25,67.5C67.09,67.5 63.75,64.129 63.75,60C63.75,55.871 67.09,52.5 71.25,52.5ZM138.75,52.5L153.75,52.5C157.91,52.5 161.25,55.871 161.25,60C161.25,64.129 157.91,67.5 153.75,67.5L138.75,67.5C134.59,67.5 131.25,64.129 131.25,60C131.25,55.871 134.59,52.5 138.75,52.5ZM281.953,63.281L245.625,71.953C243.691,72.422 241.992,73.535 240.938,75.234C240.496,75.938 240.176,76.785 240,77.578L240,75C240,70.871 236.66,67.5 232.5,67.5L195,67.5C190.871,67.5 187.5,70.871 187.5,75L187.5,225C187.5,229.16 190.871,232.5 195,232.5L232.5,232.5C236.66,232.5 240,229.16 240,225L240,80.859L276.094,226.875C276.914,230.332 279.961,232.734 283.359,232.734C283.918,232.734 284.414,232.617 285,232.5L321.563,223.828C323.496,223.359 325.195,222.246 326.25,220.547C327.305,218.848 327.656,216.855 327.188,214.922L291.094,68.906C290.129,64.863 285.965,62.316 281.953,63.281ZM277.266,95.859C280.137,96.355 282.656,98.465 283.359,101.484C284.297,105.527 281.746,109.688 277.734,110.625L270.469,112.266C269.883,112.41 269.387,112.5 268.828,112.5C265.43,112.5 262.148,110.098 261.328,106.641C260.391,102.598 262.941,98.672 266.953,97.734L274.219,96.094C275.215,95.859 276.301,95.684 277.266,95.859ZM210,97.5L217.5,97.5C221.66,97.5 225,100.871 225,105C225,109.129 221.66,112.5 217.5,112.5L210,112.5C205.84,112.5 202.5,109.129 202.5,105C202.5,100.871 205.84,97.5 210,97.5ZM296.484,183.516C300.496,182.605 304.66,185.098 305.625,189.141C306.563,193.152 304.043,197.109 300,198.047L292.734,199.922C292.148,200.066 291.418,200.156 290.859,200.156C287.461,200.156 284.414,197.754 283.594,194.297C282.656,190.285 285.176,186.094 289.219,185.156L296.484,183.516ZM71.25,187.5L86.25,187.5C90.41,187.5 93.75,190.871 93.75,195C93.75,199.129 90.41,202.5 86.25,202.5L71.25,202.5C67.09,202.5 63.75,199.129 63.75,195C63.75,190.871 67.09,187.5 71.25,187.5ZM138.75,187.5L153.75,187.5C157.91,187.5 161.25,190.871 161.25,195C161.25,199.129 157.91,202.5 153.75,202.5L138.75,202.5C134.59,202.5 131.25,199.129 131.25,195C131.25,190.871 134.59,187.5 138.75,187.5ZM210,187.5L217.5,187.5C221.66,187.5 225,190.84 225,195C225,199.16 221.66,202.5 217.5,202.5L210,202.5C205.84,202.5 202.5,199.16 202.5,195C202.5,190.84 205.84,187.5 210,187.5Z" style="fill:rgb(255,103,106);fill-rule:nonzero;"/>
        </g>
    </g>
</svg>
