<?xml version="1.0" encoding="UTF-8"?>
<svg xmlns="http://www.w3.org/2000/svg" xmlns:xlink="http://www.w3.org/1999/xlink" width="375pt" height="375pt" viewBox="0 0 375 375" version="1.1">
<g id="surface4304">
<path style=" stroke:none;fill-rule:nonzero;fill:rgb(100%,100%,100%);fill-opacity:1;" d="M 352.5 82.5 L 195 82.5 L 195 75 C 195 62.605469 184.894531 52.5 172.5 52.5 L 22.5 52.5 C 10.105469 52.5 0 62.605469 0 75 L 0 315 C 0 327.394531 10.105469 337.5 22.5 337.5 L 67.5 337.5 L 67.5 315 L 97.5 315 L 97.5 337.5 L 277.5 337.5 L 277.5 315 L 307.5 315 L 307.5 337.5 L 352.5 337.5 C 364.894531 337.5 375 327.394531 375 315 L 375 105 C 375 92.605469 364.894531 82.5 352.5 82.5 Z M 45 255 C 46.550781 228.164062 82.382812 232.058594 87.363281 218.144531 C 87.773438 213.371094 87.628906 210.058594 87.628906 205.691406 C 85.546875 204.582031 81.679688 197.371094 81.066406 191.25 C 79.425781 191.132812 76.875 189.464844 76.113281 182.929688 C 75.703125 179.414062 77.316406 177.449219 78.28125 176.835938 C 72.773438 154.746094 75.792969 135.46875 100.988281 135 C 107.285156 135 112.121094 136.757812 113.996094 140.214844 C 132.394531 142.851562 126.855469 168.542969 124.21875 176.835938 C 125.183594 177.449219 126.796875 179.441406 126.386719 182.929688 C 125.652344 189.492188 123.074219 191.132812 121.433594 191.277344 C 120.792969 197.371094 117.097656 204.582031 115.019531 205.722656 C 115.019531 210.058594 114.871094 213.371094 115.285156 218.144531 C 120.261719 232.058594 155.949219 228.164062 157.5 255 Z M 330 255 L 195 255 L 195 240 L 330 240 Z M 330 217.5 L 195 217.5 L 195 202.5 L 330 202.5 Z M 330 180 L 195 180 L 195 165 L 330 165 Z M 330 180 "/>
</g>
</svg>
