<svg xmlns="http://www.w3.org/2000/svg"  viewBox="0 0 48 48" width="48px" height="48px"><path fill="#1e88e5" d="M33.795,20.603c-0.433-0.324-0.859-0.656-1.3-0.97c-6.074-4.326-11.127-9.509-14.458-16.142 c-0.17-0.339-0.283-0.5-0.412-0.491c-0.105,0.007-1.32,0.8-1.577,2.395C16.017,5.586,16,5.787,16,6c0,2.625,2,4,2,4s-1.5-1-2.5-1 C14.672,9,14,9.672,14,10.5c0,0.222,0,1.375,0,1.375L16,14l19.5,14.75C35.5,28.75,33.51,21.345,33.795,20.603z"/><path fill="#90caf9" d="M38,15c-4,0-6.625,6.75-6.875,7.375c-1.452,3.631-2.87,9.392-3.533,10.447 c-0.931,0.684-6.446,3.862-10.717,6.303C16,39.625,16,40.377,16,40.5c0,0.828,0.672,1.5,1.5,1.5c0.237,0,0.459-0.06,0.658-0.158 C18.06,42.041,18,42.263,18,42.5c0,0.828,0.672,1.5,1.5,1.5c0.558,0,1.066-0.205,1.5-0.497C21.002,44.33,21.673,45,22.5,45 c0.856,0,1.303-0.696,1.579-1.301C24.235,44.336,24.552,45,25.5,45c0.828,0,1.5-0.672,1.5-1.5c0-0.052,0.002-0.145,0.004-0.256 C27.402,43.728,27.94,44,28.5,44c0.828,0,1.5-0.672,1.5-1.5c0-0.601,0-3.904,0-4.875c0-1,0.928-1.039,1.625-1.375 c2.961-1.427,6.435-3.797,7.185-9.82c0.247-1.985,0.328-3.948,0.422-5.43C39.29,20.089,40,20,40,20l1-1c0,0,0-0.754,0-1 C41,16,39.781,15,38,15z"/><path fill="#90caf9" d="M30.875,22.75c-1.208-0.602-6.131-3.864-8.125-5C13.75,12.625,9,6,8.5,6 C7.672,6,7.008,7.745,7.006,9.024C7,12.012,10,13,10,13s-0.672,0-1.5,0C7.625,13,7,13.125,7,14c0,2.5,3,4,3,4s-0.308,0-0.5,0 C8.625,18,8,18.125,8,19.016C8,21.5,12,23,12,23s-2,0.5-2,2c0,2,3.5,2,6,2c0,0-2,1-2,2.5c0,0.828,0.875,1.5,2,1.5c2.5,0,4-1,4-1 s-1,1-1,2.5c0,1,0.5,1.5,1.5,1.5c2,0,4.5-2,4.5-2s-1,1-1,4c0,0.625,4.5-1.125,4.875-1.125C31.875,34.875,34,29,34,26 S31.626,23.124,30.875,22.75z"/><path fill="#42a5f5" d="M30,29c0.767-0.625,1-1,1-1c0.625-5.375-10.69-10.647-15.25-14h-0.375C14,14,13,15.155,13,16.016 C13,18.5,17,20,17,20s-2,0.5-2,2c0,2,3.5,2,6,2c0,0-2,1-2,2.5c0,0.828,0.875,1.5,2,1.5c2.5,0,4-1,4-1s0,0.375,0,1c0,1.5,1,2,2,2 C29,30,30,29,30,29z"/><path fill="#bbdefb" d="M28.253,20.41c-1.897-0.865-4.26-1.953-5.503-2.66c-3.765-2.144-11.914-9.38-12.342-9.852 c0,0,2.812,8.286,17.078,15.459C31.25,25.25,31,28,31,28c0.659-0.765,1-2.114,1-3C32,22,29.401,20.933,28.253,20.41z"/><path fill="#e65100" d="M41,18c-0.125,1.125-1,2-1,2h3C43,20,42,18,41,18z"/><path fill="#424242" d="M38.5 17A0.5 0.5 0 1 0 38.5 18A0.5 0.5 0 1 0 38.5 17Z"/><path fill="#42a5f5" d="M29.375,34c-0.999,0.875-5.733,4.272-5.754,4.288C23.245,38.56,23,39.001,23,39.5 c0,0.828,0.672,1.5,1.5,1.5c0.184,0,0.545-0.108,0.557-0.113C25.228,41.527,25.806,42,26.5,42c0.69,0,1.266-0.469,1.44-1.104 C28.122,40.957,28.308,41,28.5,41c0.828,0,1.5-0.672,1.5-1.5v-1.875c0-1,0.928-1.039,1.625-1.375 c2.961-1.427,6.435-3.797,7.185-9.82c0.247-1.985,0.328-3.948,0.422-5.43C39.232,21,38.292,33.042,29.375,34z"/></svg>