<?xml version="1.0" encoding="UTF-8" standalone="no"?>
<!DOCTYPE svg PUBLIC "-//W3C//DTD SVG 1.1//EN" "http://www.w3.org/Graphics/SVG/1.1/DTD/svg11.dtd">
<svg width="100%" height="100%" viewBox="0 0 360 360" version="1.1" xmlns="http://www.w3.org/2000/svg" xmlns:xlink="http://www.w3.org/1999/xlink" xml:space="preserve" xmlns:serif="http://www.serif.com/" style="fill-rule:evenodd;clip-rule:evenodd;stroke-linejoin:round;stroke-miterlimit:2;">
    <g id="surface2646">
        <path d="M60,48C46.738,48 36,58.738 36,72L36,168C36,181.262 46.738,192 60,192L108.492,192C108.793,213.434 106.695,259.363 85.945,293.438L85.969,293.438C82.809,298.309 83.59,304.746 87.824,308.723C92.059,312.695 98.531,313.07 103.195,309.609C103.195,309.609 156,269.332 156,192L156,72C156,58.738 145.262,48 132,48L60,48ZM228,48C214.738,48 204,58.738 204,72L204,168C204,181.262 214.738,192 228,192L276.492,192C276.793,213.434 274.695,259.363 253.945,293.438L253.969,293.438C250.809,298.309 251.59,304.746 255.824,308.723C260.059,312.695 266.531,313.07 271.195,309.609C271.195,309.609 324,269.332 324,192L324,72C324,58.738 313.262,48 300,48L228,48Z" style="fill:rgb(255,103,106);fill-rule:nonzero;"/>
    </g>
</svg>
